#N canvas -9 -9 1920 976 10;
#N canvas 619 85 1035 527 reverb 0;
#X obj 41 311 freeverb~;
#X msg 106 48 roomsize \$1;
#X msg 103 99 damping \$1;
#X msg 118 164 wet \$1;
#X msg 119 209 dry \$1;
#X obj 180 178 expr 1-$f1;
#X obj 212 8 hsl 128 15 0 1 0 0 empty empty empty -2 -8 0 10 -262144
-1 -1 0 1;
#X obj 209 69 hsl 128 15 0 1 0 0 empty empty empty -2 -8 0 10 -262144
-1 -1 0 1;
#X obj 210 124 hsl 128 15 0 1 0 0 empty empty empty -2 -8 0 10 -262144
-1 -1 0 1;
#X floatatom 207 38 5 0 0 0 - - -;
#X floatatom 207 93 5 0 0 0 - - -;
#X floatatom 207 150 5 0 0 0 - - -;
#X text 275 179 1 - signal all wet 0 - signal all dry;
#X obj 40 26 adc~;
#X obj 41 354 send~ reverb;
#X connect 0 0 14 0;
#X connect 1 0 0 0;
#X connect 2 0 0 0;
#X connect 3 0 0 0;
#X connect 4 0 0 0;
#X connect 5 0 4 0;
#X connect 6 0 1 0;
#X connect 6 0 9 0;
#X connect 7 0 2 0;
#X connect 7 0 10 0;
#X connect 8 0 3 0;
#X connect 8 0 5 0;
#X connect 8 0 11 0;
#X connect 13 0 0 0;
#X coords 0 -1 1 1 300 175 1 50 5;
#X restore 36 391 pd reverb;
#N canvas 1011 33 641 976 tremolo 0;
#X obj 31 47 adc~;
#X obj 32 382 *~;
#X obj 89 106 osc~;
#X obj 89 155 *~;
#X obj 89 195 clip~ -1 1;
#X obj 89 266 *~;
#X obj 89 338 +~;
#X obj 138 75 hsl 128 15 0.5 25 0 0 empty empty empty -2 -8 0 10 -262144
-1 -1 0 1;
#X obj 137 127 hsl 128 15 1 20 0 0 empty empty empty -2 -8 0 10 -262144
-1 -1 0 1;
#X obj 137 227 hsl 128 15 0 0.5 0 0 empty empty empty -2 -8 0 10 -262144
-1 -1 0 1;
#X obj 149 285 expr 1-$f1;
#X floatatom 170 314 5 0 0 0 - - -;
#X floatatom 175 263 5 0 0 0 - - -;
#X text 296 74 Frequência do oscilador;
#X text 300 193 Trim at -1 and 1;
#X text 224 285 Normalize between 0 and 1;
#X text 299 230 Depth;
#X text 293 126 shape (entre 1 e 20 \, log);
#X obj 31 422 send~ tremolo;
#X connect 0 0 1 0;
#X connect 1 0 18 0;
#X connect 2 0 3 0;
#X connect 3 0 4 0;
#X connect 4 0 5 0;
#X connect 5 0 6 0;
#X connect 6 0 1 1;
#X connect 7 0 2 0;
#X connect 8 0 3 1;
#X connect 9 0 5 1;
#X connect 9 0 12 0;
#X connect 9 0 10 0;
#X connect 10 0 6 1;
#X connect 10 0 11 0;
#X coords 0 -1 1 1 225 200 1 60 60;
#X restore 359 391 pd tremolo;
#N canvas -9 -9 1920 976 vibrato 0;
#X obj 42 13 adc~;
#X obj 42 34 delwrite~ vibrato 50;
#X obj 52 108 vsl 15 128 0 5 0 0 empty empty empty 0 -9 0 10 -262144
-1 -1 0 1;
#X obj 267 103 vsl 15 128 0 5 0 0 empty empty empty 0 -9 0 10 -262144
-1 -1 0 1;
#X floatatom 318 350 5 0 0 0 - - -;
#X obj 53 262 osc~ 2;
#X obj 53 331 *~ 2;
#X obj 53 298 *~ 1;
#X obj 53 370 vd~ vibrato;
#X obj 270 283 * 2;
#X obj 319 321 +;
#X floatatom 11 259 5 0 0 0 - - -;
#X text 38 58 Frequencia do LFO (SPEED);
#X text 391 349 Máximo de comprimento da linha do delay;
#X text 355 165 Depth (muda o comprimento da linha do delay);
#X obj 54 400 send~ vibrato;
#X connect 0 0 1 0;
#X connect 2 0 5 0;
#X connect 2 0 11 0;
#X connect 3 0 7 1;
#X connect 3 0 9 0;
#X connect 3 0 10 1;
#X connect 5 0 7 0;
#X connect 6 0 8 0;
#X connect 7 0 6 0;
#X connect 8 0 15 0;
#X connect 9 0 10 0;
#X connect 9 0 6 1;
#X connect 10 0 4 0;
#X coords 0 -1 1 1 300 175 1 30 80;
#X restore 635 396 pd vibrato;
#N canvas -9 -9 1920 976 wah_effect 0;
#X obj 59 466 vcf~;
#X obj 58 69 adc~;
#X floatatom 254 372 5 0 0 0 - - -;
#X obj 258 222 vsl 15 128 0 20 0 0 empty empty empty 0 -9 0 10 -262144
-1 -1 3366 1;
#X obj 125 108 +~ 1;
#X obj 126 129 *~ 0.5;
#X obj 125 87 osc~ 2;
#X obj 222 110 hsl 128 15 700 6000 0 0 empty empty empty -2 -8 0 10
-262144 -1 -1 0 1;
#X obj 224 157 hsl 128 15 0 700 0 0 empty empty empty -2 -8 0 10 -262144
-1 -1 0 1;
#X floatatom 178 256 6 0 0 0 - - -;
#X floatatom 179 198 6 0 0 0 - - -;
#X obj 179 179 -;
#X obj 179 157 bang;
#X obj 79 263 +~ 200;
#X obj 78 181 *~ 1500;
#X obj 221 52 hsl 128 15 0.5 4 0 0 empty empty empty -2 -8 0 10 -262144
-1 -1 0 1;
#X obj 304 214 loadbang;
#X msg 302 239 5.3;
#X text 140 467 Controlo de voltagem;
#X text 444 157 Minimo de frequência;
#X text 449 114 Máximo de frequência;
#X text 473 55 LFO frequêcia;
#X obj 53 501 send~ wah_effect;
#X connect 0 0 22 0;
#X connect 1 0 0 0;
#X connect 3 0 2 0;
#X connect 3 0 0 2;
#X connect 4 0 5 0;
#X connect 5 0 14 0;
#X connect 6 0 4 0;
#X connect 7 0 11 0;
#X connect 8 0 9 0;
#X connect 8 0 11 1;
#X connect 8 0 12 0;
#X connect 8 0 13 1;
#X connect 11 0 10 0;
#X connect 11 0 14 1;
#X connect 12 0 11 0;
#X connect 13 0 0 1;
#X connect 14 0 13 0;
#X connect 15 0 6 0;
#X connect 16 0 17 0;
#X connect 17 0 3 0;
#X coords 0 -1 1 1 180 400 1 200 30;
#X restore 995 395 pd wah_effect;
#X text 267 422 roomsize;
#X text 254 535 wet signal;
#X text 273 478 damping;
#X obj 43 128 sel 0 1;
#X msg 87 181 0.7 40;
#X obj 40 320 dac~;
#X obj 41 285 *~;
#X obj 122 230 vline~;
#X obj 41 230 r~ reverb;
#X obj 43 79 tgl 15 0 empty empty empty 17 7 0 10 -262144 -1 -1 0 1
;
#X text 417 426 Frequência do oscilador;
#X text 529 484 Shape;
#X text 529 535 Depth;
#X text 682 420 Frequência do LFO;
#X text 896 419 Depth;
#X text 1072 438 LFO;
#X text 1020 496 Máximo de frequência;
#X text 1030 547 Minimo de frequência;
#X text 1034 765 Controlo de voltagem;
#X obj 181 127 sel 0 1;
#X msg 226 180 0.7 40;
#X obj 179 320 dac~;
#X obj 179 285 *~;
#X obj 261 229 vline~;
#X obj 181 78 tgl 15 0 empty empty empty 17 7 0 10 -262144 -1 -1 0
1;
#X obj 317 128 sel 0 1;
#X msg 361 181 0.7 40;
#X obj 314 320 dac~;
#X obj 315 285 *~;
#X obj 396 230 vline~;
#X obj 317 79 tgl 15 0 empty empty empty 17 7 0 10 -262144 -1 -1 0
1;
#X obj 457 127 sel 0 1;
#X msg 501 180 0.7 40;
#X obj 454 319 dac~;
#X obj 455 284 *~;
#X obj 536 229 vline~;
#X obj 457 78 tgl 15 0 empty empty empty 17 7 0 10 -262144 -1 -1 0
1;
#X obj 597 127 sel 0 1;
#X msg 642 180 0.7 40;
#X obj 595 320 dac~;
#X obj 595 285 *~;
#X obj 683 229 vline~;
#X obj 597 78 tgl 15 0 empty empty empty 17 7 0 10 -262144 -1 -1 0
1;
#X obj 743 126 sel 0 1;
#X msg 787 179 0.7 40;
#X obj 740 319 dac~;
#X obj 741 284 *~;
#X obj 835 228 vline~;
#X obj 743 77 tgl 15 0 empty empty empty 17 7 0 10 -262144 -1 -1 0
1;
#X obj 179 229 r~ delay;
#X obj 315 230 r~ tremolo;
#X obj 455 229 r~ vibrato;
#X obj 595 229 r~ distorcao;
#X obj 741 228 r~ wah_effect;
#N canvas 680 83 450 300 distorcao 0;
#X obj 31 42 adc~;
#X obj 31 73 *~ 40;
#X text 79 72 Amplificar o som;
#X text 130 103 Produção de distorção;
#X obj 31 102 clip~ -0.2 0.2;
#X obj 30 149 send~ distorcao;
#X connect 0 0 1 0;
#X connect 1 0 4 0;
#X connect 4 0 5 0;
#X restore 40 636 pd distorcao;
#N canvas 510 54 450 300 delay 0;
#X obj 42 41 adc~;
#X obj 165 130 *~ 0.6;
#X text 214 131 Redução da amplitude e prevenir a distorção;
#X obj 43 81 delwrite~ guitardelay 1000;
#X obj 42 185 delread~ guitardelay 200;
#X obj 42 228 send~ delay;
#X connect 0 0 3 0;
#X connect 1 0 3 0;
#X connect 4 0 1 0;
#X connect 4 0 5 0;
#X restore 40 609 pd delay;
#X msg 42 180 0 40;
#X msg 181 180 0 40;
#X msg 316 180 0 40;
#X msg 456 179 0 40;
#X msg 597 180 0 40;
#X msg 742 179 0 40;
#N canvas -9 -9 1920 976 monophonic 0;
#X obj 257 469 *~;
#X obj 200 443 line~;
#X obj 280 254 osc~;
#X obj 289 326 +~ 440;
#X obj 353 186 mtof;
#X obj 372 223 *;
#X msg 325 129 1;
#X obj 278 184 osc~;
#X obj 279 205 *~ 1;
#X obj 277 157 *;
#X msg 284 128 1;
#X obj 280 230 +~ 1;
#X obj 348 11 loadbang;
#X obj 33 90 adc~;
#X obj 34 113 sigmund~;
#X obj 35 187 / 40;
#X obj 35 167 expr if($f1>$f2 \, $f1-$f2 \, 0);
#X msg 199 138 35;
#X obj 93 232 *;
#X obj 93 253 expr (1-$f1)*3000;
#X obj 361 282 line~;
#X obj 365 255 pack 0 10;
#X obj 289 301 *~;
#X obj 289 353 osc~;
#X obj 322 306 * 1;
#X obj 441 240 hradio 30 1 0 2 empty empty empty 0 -8 0 10 -262144
-1 -1 1;
#X obj 441 289 sel 0 1;
#X msg 434 317 1;
#X msg 464 317 0.5;
#X obj 200 421 pack 0 5;
#X obj 253 500 send~ monophonic;
#X connect 0 0 30 0;
#X connect 1 0 0 1;
#X connect 2 0 22 0;
#X connect 3 0 23 0;
#X connect 4 0 5 0;
#X connect 4 0 9 0;
#X connect 4 0 24 0;
#X connect 5 0 11 1;
#X connect 6 0 5 1;
#X connect 7 0 8 0;
#X connect 8 0 11 0;
#X connect 9 0 7 0;
#X connect 10 0 9 1;
#X connect 11 0 2 0;
#X connect 12 0 6 0;
#X connect 12 0 10 0;
#X connect 12 0 17 0;
#X connect 13 0 14 0;
#X connect 14 0 4 0;
#X connect 14 1 16 0;
#X connect 15 0 18 1;
#X connect 15 0 18 0;
#X connect 15 0 29 0;
#X connect 16 0 15 0;
#X connect 17 0 16 1;
#X connect 18 0 19 0;
#X connect 19 0 21 0;
#X connect 20 0 22 1;
#X connect 21 0 20 0;
#X connect 22 0 3 0;
#X connect 23 0 0 0;
#X connect 24 0 3 1;
#X connect 25 0 26 0;
#X connect 26 0 27 0;
#X connect 26 1 28 0;
#X connect 27 0 24 1;
#X connect 28 0 24 1;
#X connect 29 0 1 0;
#X restore 39 666 pd monophonic;
#X connect 7 0 60 0;
#X connect 7 1 8 0;
#X connect 8 0 11 0;
#X connect 10 0 9 0;
#X connect 10 0 9 1;
#X connect 11 0 10 1;
#X connect 12 0 10 0;
#X connect 13 0 7 0;
#X connect 23 0 61 0;
#X connect 23 1 24 0;
#X connect 24 0 27 0;
#X connect 26 0 25 0;
#X connect 26 0 25 1;
#X connect 27 0 26 1;
#X connect 28 0 23 0;
#X connect 29 0 62 0;
#X connect 29 1 30 0;
#X connect 30 0 33 0;
#X connect 32 0 31 0;
#X connect 32 0 31 1;
#X connect 33 0 32 1;
#X connect 34 0 29 0;
#X connect 35 0 63 0;
#X connect 35 1 36 0;
#X connect 36 0 39 0;
#X connect 38 0 37 0;
#X connect 38 0 37 1;
#X connect 39 0 38 1;
#X connect 40 0 35 0;
#X connect 41 0 64 0;
#X connect 41 1 42 0;
#X connect 42 0 45 0;
#X connect 44 0 43 0;
#X connect 44 0 43 1;
#X connect 45 0 44 1;
#X connect 46 0 41 0;
#X connect 47 0 65 0;
#X connect 47 1 48 0;
#X connect 48 0 51 0;
#X connect 50 0 49 0;
#X connect 50 0 49 1;
#X connect 51 0 50 1;
#X connect 52 0 47 0;
#X connect 53 0 26 0;
#X connect 54 0 32 0;
#X connect 55 0 38 0;
#X connect 56 0 44 0;
#X connect 57 0 50 0;
#X connect 60 0 11 0;
#X connect 61 0 27 0;
#X connect 62 0 33 0;
#X connect 63 0 39 0;
#X connect 64 0 45 0;
#X connect 65 0 51 0;
